<svg width="105" height="104" viewBox="0 0 105 104" fill="none" xmlns="http://www.w3.org/2000/svg">
<path d="M1.54354 66.2331L8.14932 101.62C8.93807 102.416 10.0634 102.811 11.788 102.526C13.8002 102.192 14.7823 101.551 15.4362 100.034C17.0334 96.3261 18.6065 92.6181 20.1558 88.9095C22.5075 83.3805 24.8199 77.8524 27.1839 72.332C27.7661 70.9672 28.8102 70.3521 30.5664 70.1984C32.0375 70.0697 32.7848 70.5855 33.4473 71.2216C40.2489 77.7661 47.063 84.3068 53.8895 90.8438C57.1142 93.958 56.6636 94.2076 63.5869 92.8194C70.2203 91.4876 76.9013 90.3536 83.5549 89.092C86.3685 88.5667 87.4765 87.3933 86.8013 85.769C86.3997 84.8055 85.8998 83.8713 85.4436 82.9223C84.2333 80.4052 82.9992 77.8946 81.8196 75.3696C81.1265 73.8792 82.4305 72.606 84.7853 72.4016C86.1507 72.2817 86.7842 72.7817 87.3419 73.3743C90.7262 76.9413 94.1128 80.5079 97.5018 84.0741C97.8334 84.4545 98.2046 84.8178 98.6134 85.162C99.0288 85.5092 99.6486 85.7328 100.371 85.7959C101.092 85.859 101.873 85.7579 102.584 85.5092C104.144 84.9568 104.52 84.19 104.305 83.2287C104.116 82.2902 103.756 81.3878 103.23 80.5382C99.4265 74.6227 95.6479 68.7011 91.8945 62.7734C88.23 57.0032 84.5775 51.2265 80.9368 45.4431C79.6682 43.4376 78.9911 43.2592 75.2642 43.9505L67.3454 45.4287C63.889 46.074 63.257 46.5207 62.7384 48.7249C60.7407 57.1848 58.7431 65.6447 56.7454 74.1047C56.313 75.927 55.6627 76.621 54.0171 76.9456C52.3132 77.2833 51.4026 76.8698 50.3162 75.2656C45.5038 68.1365 40.6854 61.0128 35.8607 53.8946C34.4106 51.7596 33.9544 51.6532 30.0762 52.3772C25.1438 53.2979 20.1916 54.1505 15.2757 55.1596C9.70886 56.3033 5.56481 58.5921 3.10591 62.0902C2.14552 63.4604 1.92041 64.8413 1.54354 66.2331Z" fill="#BBBBBB"/>
<path d="M0.000976562 47.3876V1.96885C0.444579 0.799691 1.17318 0.0490566 2.40486 0.00315449C3.84223 -0.0481479 4.60552 0.518878 5.25482 2.24966C6.84088 6.47805 8.41043 10.7127 9.96345 14.9537C12.3079 21.2666 14.625 27.5876 16.9768 33.887C17.5567 35.445 18.3597 35.9661 19.5963 35.7501C20.6322 35.5692 21.0833 34.7565 21.4599 33.8141C25.326 24.1225 29.2011 14.4326 33.0853 4.74457C34.9167 0.13546 34.5722 -0.0697489 39.5485 0.0490566C44.3166 0.165162 49.0922 0.0247555 53.8652 0.0490566C55.8825 0.0490566 56.802 1.24791 56.5442 3.41881C56.3906 4.70677 56.165 5.98123 55.9717 7.26379C55.4588 10.6659 54.9284 14.0654 54.4377 17.4703C54.1502 19.4792 55.2184 20.7563 56.8763 20.4647C57.8378 20.2973 58.2121 19.5305 58.5218 18.6664C60.4053 13.4588 62.2904 8.25113 64.1771 3.04349C64.3577 2.49491 64.5679 1.95844 64.8066 1.43692C65.0496 0.910123 65.45 0.489291 65.942 0.243854C66.434 -0.00158334 66.9881 -0.0569606 67.5128 0.0868583C68.6652 0.410873 69.0246 1.27491 68.9998 2.51697C68.9906 3.72458 68.8576 4.92729 68.6033 6.10274C66.733 14.3201 64.881 22.5393 63.0471 30.7603C61.2545 38.7652 59.471 46.7756 57.6966 54.7914C57.077 57.5725 56.6309 57.9505 53.9594 57.9559H48.2818C45.8036 57.9559 45.3079 57.5482 44.6636 54.9345C42.1854 44.9044 39.7071 34.8744 37.2289 24.8443C36.6936 22.6842 36.1534 21.9741 34.9712 21.9525C33.747 21.9282 33.1696 22.6518 32.6244 24.8929C30.2122 34.8492 27.7951 44.8 25.3731 54.7455C24.6445 57.7291 24.3421 57.9667 21.5616 57.9667C18.0251 57.9667 14.4837 58.0558 10.9473 57.9424C6.94249 57.8128 3.77532 55.9335 1.61926 52.1642C0.776662 50.6872 0.442101 49.0266 0.000976562 47.3876Z" fill="#171717"/>
</svg>
