<svg width="69" height="58" viewBox="0 0 69 58" fill="none" xmlns="http://www.w3.org/2000/svg">
<path d="M0 47.3876V1.96885C0.443603 0.799691 1.1722 0.0490566 2.40388 0.00315449C3.84125 -0.0481479 4.60455 0.518878 5.25384 2.24966C6.83991 6.47805 8.40945 10.7127 9.96247 14.9537C12.3069 21.2666 14.624 27.5876 16.9759 33.887C17.5558 35.445 18.3587 35.9661 19.5953 35.7501C20.6312 35.5692 21.0823 34.7565 21.459 33.8141C25.325 24.1225 29.2001 14.4326 33.0843 4.74457C34.9157 0.13546 34.5713 -0.0697489 39.5476 0.0490566C44.3157 0.165162 49.0912 0.0247555 53.8643 0.0490566C55.8815 0.0490566 56.801 1.24791 56.5432 3.41881C56.3896 4.70677 56.1641 5.98123 55.9708 7.26379C55.4578 10.6659 54.9274 14.0654 54.4367 17.4703C54.1493 19.4792 55.2174 20.7563 56.8753 20.4647C57.8369 20.2973 58.2111 19.5305 58.5209 18.6664C60.4043 13.4588 62.2894 8.25113 64.1762 3.04349C64.3567 2.49491 64.5669 1.95844 64.8056 1.43692C65.0486 0.910123 65.4491 0.489291 65.9411 0.243854C66.433 -0.00158334 66.9871 -0.0569606 67.5119 0.0868583C68.6642 0.410873 69.0236 1.27491 68.9988 2.51697C68.9896 3.72458 68.8566 4.92729 68.6023 6.10274C66.7321 14.3201 64.88 22.5393 63.0461 30.7603C61.2535 38.7652 59.47 46.7756 57.6956 54.7914C57.0761 57.5725 56.63 57.9505 53.9584 57.9559H48.2808C45.8026 57.9559 45.3069 57.5482 44.6626 54.9345C42.1844 44.9044 39.7062 34.8744 37.2279 24.8443C36.6926 22.6842 36.1524 21.9741 34.9703 21.9525C33.746 21.9282 33.1686 22.6518 32.6234 24.8929C30.2112 34.8492 27.7941 44.8 25.3721 54.7455C24.6435 57.7291 24.3411 57.9667 21.5606 57.9667C18.0241 57.9667 14.4828 58.0558 10.9463 57.9424C6.94151 57.8128 3.77434 55.9335 1.61828 52.1642C0.775685 50.6872 0.441124 49.0266 0 47.3876Z" fill="#333333"/>
</svg>
