<svg width="432" height="360" viewBox="0 0 432 360" fill="none" xmlns="http://www.w3.org/2000/svg">
<path d="M1 293.768V13.1638C3.76448 5.94062 8.30502 1.30308 15.9807 1.01949C24.9382 0.702535 29.695 4.20571 33.7413 14.8987C43.6255 41.0224 53.4067 67.1851 63.085 93.3866C77.695 132.389 92.1352 171.441 106.792 210.359C110.405 219.985 115.409 223.204 123.116 221.87C129.572 220.752 132.382 215.731 134.73 209.909C158.823 150.032 182.972 90.167 207.178 30.3127C218.591 1.8369 216.444 0.56908 247.456 1.30308C277.17 2.0204 306.931 1.15294 336.676 1.30308C349.247 1.30308 354.977 8.7098 353.371 22.122C352.413 30.0792 351.008 37.953 349.803 45.8769C346.606 66.8959 343.301 87.8983 340.243 108.934C338.452 121.345 345.108 129.236 355.44 127.434C361.433 126.4 363.765 121.662 365.695 116.324C377.433 84.1505 389.18 51.9768 400.938 19.8032C402.064 16.4139 403.374 13.0996 404.861 9.87753C406.375 6.62289 408.871 4.02292 411.937 2.50657C415.003 0.990218 418.456 0.648088 421.726 1.53662C428.908 3.53844 431.147 8.87662 430.993 16.5502C430.935 24.0111 430.106 31.4416 428.522 38.7037C416.866 89.472 405.325 140.251 393.896 191.042C382.725 240.498 371.61 289.987 360.552 339.51C356.691 356.692 353.911 359.028 337.263 359.061H301.881C286.437 359.061 283.348 356.542 279.332 340.394C263.888 278.427 248.444 216.459 233 154.492C229.664 141.147 226.297 136.759 218.931 136.626C211.301 136.476 207.703 140.946 204.305 154.792C189.273 216.304 174.21 277.782 159.116 339.226C154.575 357.66 152.691 359.128 135.363 359.128C113.324 359.128 91.2549 359.678 69.2163 358.978C44.2587 358.177 24.5213 346.566 11.0849 323.279C5.83398 314.154 3.74904 303.894 1 293.768Z" stroke="black" stroke-miterlimit="10" stroke-dasharray="5 5"/>
</svg>
