<svg width="839" height="876" viewBox="0 0 839 876" fill="none" xmlns="http://www.w3.org/2000/svg">
<circle cx="426.113" cy="160.5" r="46.5" fill="#FBF454"/>
<path d="M318.352 172.178C308.013 180.011 302.632 186.572 301.528 199.826C300.915 207.183 298.782 223.997 302.704 230.533C315.125 251.235 339.391 250.964 361.412 246.769C376.311 243.931 378.243 257.618 382.824 269.476C389.398 286.49 393.517 296.051 407.296 309.83C427.369 329.903 454.626 324.019 472.828 304.301C482.009 294.354 489.799 283.012 497.887 272.182C501.562 267.261 510.829 256.244 510.829 249.593C510.829 247.714 507.254 248.137 506.946 249.828C506.485 252.366 505.548 260.629 507.299 262.77C517.244 274.925 546.527 254.609 554.595 248.887C569.745 238.141 584.037 224.774 589.42 206.532C593.123 193.982 594.988 181.23 580.008 178.061C571.059 176.168 561.542 170.061 552.36 170.061C549.24 170.061 540.976 171.698 538.595 170.061C530.511 164.503 560.478 127.824 563.772 123.706C572.246 113.114 578.949 105.911 582.361 93.1167C585.284 82.1564 596.846 63.9881 592.361 52.5271C586.178 36.7258 568.174 31.5347 554.595 24.9967C545.531 20.6327 537.819 16.4421 527.535 17.5847C514.805 18.9992 511.065 42.4697 500.946 49.3505C493.853 54.1741 486.75 47.1939 481.063 42.6444C473.196 36.3503 469.853 29.1482 464.004 21.3496C456.665 11.564 445.604 9.89442 434.003 9.2315C417.874 8.30988 401.429 -2.80738 385.413 1.58418C373.526 4.84345 363.703 15.3903 362.824 27.7027C362.172 36.8242 356.471 44.7083 356.471 54.0566C356.471 59.2572 356.53 62.5954 360.706 66.1746C363.987 68.9873 367.867 68.4592 361.647 66.7629C339.858 60.8203 304.275 54.6629 285.88 71.5866C278.115 78.7304 268.467 89.4733 267.644 100.176C266.689 112.586 269.866 115.51 275.88 124.53C279.323 129.695 281.947 133.9 286.586 138.295C290.316 141.829 295.23 149.082 299.292 151.472C304.892 154.766 307.902 161.244 312.469 165.355C316.05 168.577 319.741 164.367 322.587 170.061" stroke="black" stroke-linecap="round" stroke-linejoin="round"/>
<path d="M477.18 297.124C477.18 328.78 477.898 360.549 476.71 392.186C474.721 445.167 461.843 495.511 450.591 547.015C434.732 619.611 430.629 694.961 413.178 767.258C410.071 780.129 406.521 794.186 401.413 806.318C398.219 813.903 399.468 824.624 396.707 832.907" stroke="black" stroke-linecap="round" stroke-linejoin="round"/>
<path d="M460.239 468.659C460.239 437.368 459.284 416.311 435.65 394.186C419.429 379 404.36 363.723 384.472 353.126C371.457 346.191 357.458 344.043 343.765 339.478" stroke="black" stroke-linecap="round" stroke-linejoin="round"/>
<path d="M348 341.596C348 378.538 348 415.481 348 452.423C348 469.513 359.106 486.774 370.824 499.013C382.306 511.006 394.703 523.052 408.943 531.72C418.9 537.78 433.462 551.25 445.415 551.25" stroke="black" stroke-linecap="round" stroke-linejoin="round"/>
<path d="M449.65 504.66C443.639 478.211 423.123 460.451 410.237 437.482C401.626 422.131 394.511 410.722 379.766 400.892" stroke="black" stroke-linecap="round" stroke-linejoin="round"/>
<path d="M403.06 422.069C381.684 422.069 376.068 435.027 364.941 451.717" stroke="black" stroke-linecap="round" stroke-linejoin="round"/>
<path d="M411.531 451.717C393.746 459.576 393.592 469.097 384.001 483.483" stroke="black" stroke-linecap="round" stroke-linejoin="round"/>
<path d="M407.296 411.481C418.825 411.481 429.824 411.327 441.179 413.598" stroke="black" stroke-linecap="round" stroke-linejoin="round"/>
<path d="M411.531 447.482C420.708 447.482 429.885 447.482 439.062 447.482" stroke="black" stroke-linecap="round" stroke-linejoin="round"/>
<path d="M462.357 464.424C462.357 490.815 469.445 530.029 453.886 553.368" stroke="black" stroke-linecap="round" stroke-linejoin="round"/>
<path d="M458.121 534.308C459.345 512.678 473.682 494.103 485.416 476.659C502.356 451.475 521.967 427.861 540.947 404.186C553.975 387.936 572.546 386.823 592.243 383.95C603.894 382.251 620.094 376.301 629.656 383.95" stroke="black" stroke-linecap="round" stroke-linejoin="round"/>
<path d="M631.774 390.303C631.774 402.226 632.4 414.399 631.656 426.305C630.255 448.729 631.263 474.368 624.362 495.837C615.022 524.893 599.577 560.58 572.007 576.663C539.761 595.473 464.381 612.525 439.062 574.545" stroke="black" stroke-linecap="round" stroke-linejoin="round"/>
<path d="M468.71 555.486C498.419 537.371 520.779 507.912 540.477 479.954C550.81 465.287 564.643 451.929 570.361 434.776" stroke="black" stroke-linecap="round" stroke-linejoin="round"/>
<path d="M538.594 483.483C538.594 467.368 539.942 450.369 536.477 434.776" stroke="black" stroke-linecap="round" stroke-linejoin="round"/>
<path d="M544.948 489.836C571.773 489.836 598.597 489.836 625.422 489.836" stroke="black" stroke-linecap="round" stroke-linejoin="round"/>
<path d="M504.711 502.543C504.711 490.542 504.711 478.542 504.711 466.541" stroke="black" stroke-linecap="round" stroke-linejoin="round"/>
<path d="M504.711 506.778C524.61 506.778 542.625 507.161 561.889 511.014" stroke="black" stroke-linecap="round" stroke-linejoin="round"/>
<path d="M625.422 157.892C603.658 152.289 576.22 143.187 557.592 161.805C548.467 170.925 547.286 189.679 544.283 201.343C542.179 209.517 542.102 217.809 544.618 226.042C545.978 230.493 551.133 229.229 554.469 231.385C559.421 234.585 562.177 236.824 567.911 238.3C579.289 241.229 572.891 248.52 568.533 258.107C564.245 267.54 544.179 289.409 552.2 302.264C558.545 312.436 578.067 321.844 588.229 327.948C598.634 334.199 606.396 339.534 618.249 342.585C641.457 348.56 663.514 335.808 676.396 316.317C679.116 312.203 680.716 307.181 681.413 302.279C682.892 291.889 676.967 287.378 682.054 297.694C691.205 316.254 705.318 337.796 726.363 343.214C740.998 346.981 753.474 338.506 763.942 328.491C775.354 317.571 783.804 298.562 788.849 283.734C791.71 275.328 801.653 252.821 792.951 244.74C786.336 238.597 743.748 223.496 751.797 212.123C773.29 181.758 824.049 181.988 815.776 135.108C812.156 114.593 795.584 96.9365 778.616 86.1393C761.96 75.5398 748.839 79.9803 731.743 88.3222C718.958 94.5606 704.57 100.338 697.24 112.905C694.27 117.995 692.38 129.713 686.487 124.062C676.294 114.29 660.021 102.993 645.298 103.743C617.968 105.136 611.326 129.617 605.376 152.731" stroke="black" stroke-linecap="round" stroke-linejoin="round"/>
<circle cx="676.034" cy="207.769" r="39.5" transform="rotate(14.4364 676.034 207.769)" fill="#FBF454"/>
<path d="M690.325 314.709C631.217 356.458 491.4 515.041 404.995 815.383" stroke="black"/>
<path d="M555.654 457.493C558.354 433.835 553.547 410.388 556.842 386.583C559.285 368.929 555.7 354.688 551.097 337.781C547.046 322.902 540.713 309.122 530.606 297.441C523.33 289.032 513.463 278.114 503.129 273.688C500.493 272.56 500.255 271.291 499.537 274.082C497.217 283.094 493.594 291.742 491.26 300.81C488.326 312.207 485.277 323.581 482.457 335.006C479.987 345.006 481.427 355.276 478.893 365.12C476.988 372.523 473.704 383.617 477.51 390.985C481.05 397.837 483.638 405.585 486.907 412.643C489.553 418.355 490.293 423.914 493.694 429.673C497.575 436.244 502.102 440.695 508.292 444.99C513.862 448.855 518.645 454.422 524.604 457.568C530.003 460.418 535.494 463.115 540.834 466.245C543.487 467.801 551.189 474.779 551.406 468.269C551.551 463.923 543.863 455.462 541.444 451.818C537.493 445.866 534.301 439.097 532.872 432.079C528.75 411.829 525.128 391.431 519.829 371.546C517.378 362.348 515.391 354.765 515.458 345.131C515.509 337.799 517.795 331.006 517.194 323.623C516.604 316.382 516.147 323.472 515.239 326.999C513.834 332.455 512.429 337.912 511.024 343.369C509.306 350.042 502.618 347.488 497.721 346.228C492.763 344.951 500.38 346.912 501.65 347.239C506.015 348.363 510.38 349.487 514.746 350.61C522.469 352.599 526.984 351.905 534.504 349.801C535.68 349.472 538.854 347.197 539.986 347.489C541.13 347.783 535.746 354.096 535.29 354.58C525.688 364.789 514.832 371.614 503.736 379.816C500.932 381.889 495.281 384.402 491.873 385.218C487.636 386.232 487.773 385.168 491.657 384.852C504.728 383.787 517.546 394.478 530.713 391.648C536.524 390.399 541.119 385.547 531.648 393.44C522.737 400.867 512.371 408.283 502.492 414.483C496.17 418.451 508.649 416.235 511.659 416.843C518.15 418.155 526.343 413.237 533.081 412.583C538.07 412.098 544.692 411.119 549.25 409.143C556.661 405.93 546.333 412.286 545.095 414.434C537.101 428.303 537.25 438.656 545.664 452.904C546.923 455.035 546.39 457.459 546.635 459.981C546.982 463.548 550.408 467.602 552.283 470.589C554.412 473.982 574.143 462.499 578.423 461.26C599.628 455.123 617.646 443.114 637.561 434.049C658.981 424.298 682.075 418.166 705.64 417.906C714.875 417.804 722.367 422.738 727.382 430.485C730.109 434.697 730.649 438.765 729.511 443.911C726.414 457.926 722.34 471.769 718.76 485.673C714.842 500.896 702.945 512.411 689.509 520.345C672.236 530.546 655.768 523.008 638.11 522.319C630.83 522.035 621.748 520.607 615.997 516.005C609.648 510.926 599.326 505.042 591.488 503.024C577.466 499.415 563.979 486.812 553.291 477.521C544.061 469.497 567.621 476.778 571.299 476.881C581.763 477.173 592.657 474.497 603.03 473.258C613.149 472.049 623.237 471.604 633.37 470.518C653.469 468.363 667.614 458.656 684.186 447.604C691.265 442.882 698.794 438.926 705.06 433.117C710.634 427.951 704.794 432.51 701.524 433.293C697.349 434.292 694.743 438.517 691.232 440.728C687.64 442.99 680.981 449.243 676.993 449.631C667.167 450.585 658.85 456.131 648.104 453.365C640.457 451.396 631.39 455.974 624.523 458.776C611.805 463.966 600.099 459.768 587.393 463.181C585.276 463.75 565.182 473.959 564.853 473.593C562.505 470.973 585.745 464.175 586.403 464.013C596.44 461.535 610.486 460.675 619.107 454.201C620.456 453.188 622.254 448.304 621.834 449.938C618.185 464.111 614.702 478.51 614.261 493.216C613.918 504.671 613.955 525.809 622.44 535.274C624.44 537.505 628.987 527.4 629.482 526.304C636.168 511.479 637.123 494.371 639.072 478.502C640.605 466.026 644.371 454.205 644.943 441.535C645.262 434.449 642.799 432.747 643.471 440.923C643.793 444.836 647.101 471.944 653.408 471.332C663.08 470.393 664.586 443.172 665.192 438.214C666.56 427.03 666.722 415.674 665.975 404.437C665.496 397.23 663.981 405.302 663.564 407.773C659.244 433.391 679.963 463.171 691.257 484.023" stroke="black" stroke-linecap="round" stroke-linejoin="round"/>
<circle cx="159.714" cy="224.1" r="39.5" transform="rotate(14.4364 159.714 224.1)" fill="#FBF454"/>
<path d="M395.917 827.911C395.917 760.546 370.787 692.212 352.417 627.482C345.529 603.208 336.71 579.339 333.008 554.248C327.396 516.213 323.008 478.518 313.598 441.093C303.877 402.432 298.022 363.433 284.415 326.012C277.786 307.783 265.13 305.088 247.247 305.088" stroke="black" stroke-linecap="round" stroke-linejoin="round"/>
<path d="M249.725 307.566C249.725 326.957 249.981 349.414 244.632 368.135C240.614 382.196 225.184 404.201 209.529 404.201C195.02 404.201 185.412 407.175 178.969 394.29C175.217 386.785 169.703 381.383 166.718 373.091C164.315 366.417 164.683 359.911 162.863 353.543C160.025 343.611 158.045 333.33 158.045 322.433C158.045 304.109 148.925 326.759 145.105 334.822C140.635 344.259 138.223 355.196 138.223 365.795C138.223 374.62 141.294 409.857 128.174 411.497C115.603 413.068 105.421 416.59 92.245 416.59C82.8298 416.59 80.9191 413.857 77.378 405.165C72.8332 394.009 63.2019 385.625 59.0696 374.605C53.0082 358.441 56.4541 337.511 56.4541 320.506C56.4541 308.384 53.8331 294.158 63.0616 284.715C67.7305 279.937 82.6522 266.696 78.4793 271.912C75.4482 275.701 69.0642 276.615 64.9888 279.208C51.9077 287.533 43.8094 300.319 26.5824 302.472C9.93172 304.554 4.93578 302.829 2.49237 286.642C-2.64154 252.63 5.43502 222.469 27.2707 196.063C31.8392 190.539 36.4322 185.404 42.9637 182.435C49.8995 179.282 58.524 183.625 65.1265 179.957C75.1814 174.371 87.3672 174.36 88.6659 161.374C91.0985 137.048 125.172 119.25 147.033 119.25C155.607 119.25 164.35 118.775 172.912 119.25C179.449 119.614 188.063 129.705 192.735 134.117C198.196 139.275 203.26 150.514 205.262 157.519C206.003 160.114 210.99 154.341 212.833 154.078C218.773 153.229 225.276 153.94 231.279 153.94C242.783 153.94 254.176 152.907 265.143 156.968C273.452 160.046 292.182 173.405 294.188 182.435C297.949 199.358 306.715 214.577 306.715 233.231C306.715 250.971 295.877 263.272 285.516 276.593C275.794 289.092 265.155 307.378 249.725 312.521" stroke="black" stroke-linecap="round" stroke-linejoin="round"/>
<path d="M342.985 604.342C323.673 592.755 311.799 575.579 293.185 563.687C270.657 549.294 247.318 541.899 222.452 532.947C205.244 526.753 186.704 525.015 168.575 525.015C159.561 525.015 143.952 523.874 137.175 531.405C132.433 536.674 146.947 569.291 149.074 575.035C157.94 598.974 174.11 615.386 192.263 632.107C200.764 639.936 217.181 644.661 227.961 648.854C237.774 652.67 247.762 653.922 258.149 653.922C274.223 653.922 295.405 657.12 310.814 652.379C316.465 650.64 323.556 649.332 328.001 644.887C332.132 640.756 332.555 632.884 337.036 628.14C338.738 626.337 347.809 614.002 341.994 617.233C327.446 625.315 302.043 620.208 285.914 620.208C264.531 620.208 242.354 611.198 223.113 602.249C212.361 597.248 201.634 590.045 192.373 582.637C187.048 578.377 183.863 572.59 178.822 568.645C175.971 566.414 186.742 573.787 191.272 574.484C198.018 575.522 208.191 575.633 214.078 572.17C219.354 569.067 225.977 551.68 225.977 545.838C225.977 543.907 221.352 562.724 219.587 567.543C213.752 583.478 209.378 600.704 204.162 616.351C202 622.839 178.751 619.775 197.772 620.208C210.82 620.504 227.434 626.798 238.868 617.123C248.941 608.6 251.607 601.797 254.183 588.917C257.344 573.108 254.155 593.681 253.632 598.393C252.675 607.001 250.701 615.844 249.776 624.174C248.91 631.966 241.265 630.701 236.885 635.081C231.278 640.688 261.365 634.346 266.082 631.666C275.912 626.08 289.471 619.353 295.279 609.19C299.678 601.492 303.592 591.902 307.288 584.51" stroke="black" stroke-linecap="round" stroke-linejoin="round"/>
<path d="M329.103 532.947C331.747 516.751 331.976 500.248 329.544 484.029C326.876 466.245 321.17 448.906 321.17 430.924C321.17 396.031 317.513 359.4 333.951 328.018C337.837 320.599 345.097 314.834 347.943 306.864C350.994 298.321 353.63 308.226 357.969 313.806C361.972 318.952 367.197 324.906 371.741 329.451C376.936 334.646 378.4 342.138 382.649 348.511" stroke="black" stroke-linecap="round" stroke-linejoin="round"/>
<path d="M325.137 534.931C339.847 534.931 346.048 530.585 357.859 524.023C363.731 520.761 363.821 511.132 372.733 511.132" stroke="black" stroke-linecap="round" stroke-linejoin="round"/>
<path d="M335.053 530.964C338.347 507.079 339.019 483.328 339.019 459.239C339.019 441.513 349.997 421.394 356.868 405.363C361.621 394.273 366.791 385.394 374.606 376.276C379.66 370.379 382.153 357.932 384.632 350.495" stroke="black" stroke-linecap="round" stroke-linejoin="round"/>
<path d="M356.868 390.158C354.272 387.141 332.583 365.35 329.104 372.309" stroke="black" stroke-linecap="round" stroke-linejoin="round"/>
<path d="M333.069 427.839C333.069 423.211 333.069 418.584 333.069 413.956" stroke="black" stroke-linecap="round" stroke-linejoin="round"/>
<path d="M358.851 433.788C376.038 433.788 393.226 433.788 410.413 433.788" stroke="black" stroke-linecap="round" stroke-linejoin="round"/>
<path d="M374.717 409.99C392.565 409.99 410.414 409.99 428.263 409.99" stroke="black" stroke-linecap="round" stroke-linejoin="round"/>
</svg>
