<svg width="246" height="205" viewBox="0 0 246 205" fill="none" xmlns="http://www.w3.org/2000/svg">
<path d="M0 167.491V6.95885C1.58154 2.8265 4.17915 0.17339 8.57036 0.0111495C13.6949 -0.170178 16.4162 1.83397 18.7311 7.95138C24.3858 22.8966 29.9815 37.864 35.5184 52.8537C43.8767 75.1665 52.1378 97.508 60.5226 119.773C62.5901 125.28 65.4528 127.122 69.8617 126.358C73.5549 125.719 75.1629 122.846 76.5059 119.515C90.2892 85.2604 104.105 51.0118 117.953 16.7696C124.482 0.478783 123.254 -0.246526 140.996 0.17339C157.995 0.583762 175.021 0.0874978 192.038 0.17339C199.23 0.17339 202.508 4.41072 201.589 12.0837C201.041 16.636 200.237 21.1406 199.548 25.6737C197.719 37.6986 195.828 49.7139 194.079 61.7483C193.054 68.8487 196.862 73.3628 202.773 72.3321C206.201 71.7404 207.535 69.0301 208.64 65.9761C215.355 47.5698 222.075 29.1635 228.802 10.7572C229.446 8.8182 230.195 6.92208 231.046 5.07877C231.912 3.21682 233.34 1.72939 235.094 0.861897C236.848 -0.00559628 238.824 -0.201326 240.695 0.306999C244.803 1.45222 246.084 4.50616 245.996 8.89619C245.963 13.1645 245.489 17.4154 244.582 21.57C237.914 50.6142 231.311 79.6647 224.773 108.722C218.382 137.015 212.024 165.328 205.697 193.659C203.489 203.489 201.898 204.825 192.374 204.844H172.132C163.296 204.844 161.529 203.403 159.232 194.165C150.397 158.714 141.561 123.263 132.726 87.8117C130.817 80.1769 128.891 77.667 124.677 77.5906C120.312 77.5047 118.253 80.0624 116.309 87.9835C107.71 123.174 99.0922 158.345 90.457 193.497C87.8594 204.043 86.7815 204.882 76.8681 204.882C64.26 204.882 51.6342 205.197 39.0261 204.796C24.748 204.338 13.4563 197.696 5.76953 184.373C2.76549 179.153 1.5727 173.284 0 167.491Z" fill="white"/>
</svg>
