<svg width="27" height="13" viewBox="0 0 27 13" fill="none" xmlns="http://www.w3.org/2000/svg">
<path d="M1.16886 6.00729L2.17586 7.53108C3.49324 6.51523 5.06392 6.00729 6.88792 6.00729C8.12929 6.00729 9.68732 6.39131 11.562 7.15939C13.4114 7.91511 14.925 8.29299 16.103 8.29298C17.9144 8.29299 19.2634 8.00183 20.1501 7.41956C18.7188 8.99292 17.6927 10.6654 17.0721 12.4369H18.4401C20.2135 9.90968 22.6772 8.08232 25.8312 6.95494V6.04441C22.6772 4.91705 20.2135 3.08979 18.4401 0.5625H17.0721C17.6927 2.34648 18.7188 4.02506 20.1501 5.5984C19.3014 6.18068 17.9524 6.47183 16.103 6.47182C15.0897 6.47183 13.7344 6.11871 12.037 5.41255C10.7197 4.87985 9.69048 4.54231 8.94945 4.39983C8.20847 4.25737 7.52129 4.18614 6.88792 4.18613C4.83592 4.18614 2.92956 4.79322 1.16886 6.00729Z" fill="black"/>
</svg>
