<svg width="27" height="13" viewBox="0 0 27 13" fill="none" xmlns="http://www.w3.org/2000/svg">
<path d="M25.8313 6.00729L24.8243 7.53108C23.5069 6.51523 21.9362 6.00729 20.1122 6.00729C18.8708 6.00729 17.3128 6.39131 15.4381 7.15939C13.5888 7.91511 12.0751 8.29299 10.8971 8.29298C9.0857 8.29299 7.73669 8.00183 6.85001 7.41956C8.28135 8.99292 9.30738 10.6654 9.92806 12.4369H8.56004C6.78667 9.90968 4.32297 8.08232 1.16895 6.95494V6.04441C4.32297 4.91705 6.78667 3.08979 8.56004 0.5625H9.92806C9.30738 2.34648 8.28135 4.02506 6.85001 5.5984C7.69869 6.18068 9.0477 6.47183 10.8971 6.47182C11.9104 6.47183 13.2658 6.11871 14.9631 5.41255C16.2805 4.87985 17.3096 4.54231 18.0507 4.39983C18.7917 4.25737 19.4788 4.18614 20.1122 4.18613C22.1642 4.18614 24.0706 4.79322 25.8313 6.00729Z" fill="black"/>
</svg>
