<svg id="Layer_1" data-name="Layer 1" xmlns="http://www.w3.org/2000/svg" viewBox="0 0 11.87 24.66"><path d="M13,24.66l1.52-1A7.54,7.54,0,0,1,13,18.94a12.83,12.83,0,0,1,1.15-4.67,12.56,12.56,0,0,0,1.13-4.54,7.52,7.52,0,0,0-.87-4.05,14.68,14.68,0,0,0,5,3.08V7.39A14.79,14.79,0,0,1,14,0H13A14.79,14.79,0,0,1,7.56,7.39V8.76a14.57,14.57,0,0,0,5-3.08,7.34,7.34,0,0,1,.87,4.05,11.24,11.24,0,0,1-1.06,4.06,18.08,18.08,0,0,0-1,3.09,11.16,11.16,0,0,0-.21,2.06A9.82,9.82,0,0,0,13,24.66Z" transform="translate(-7.56)"/></svg>