<svg width="21" height="91" viewBox="0 0 21 91" fill="none" xmlns="http://www.w3.org/2000/svg">
<path d="M8.25305 80.748H9.09305V88H8.25305V86.992C8.14105 87.1227 8.01505 87.258 7.87506 87.398C7.73505 87.538 7.57172 87.6687 7.38506 87.79C7.20772 87.902 6.99772 87.9953 6.75505 88.07C6.51239 88.154 6.23239 88.196 5.91505 88.196C5.42972 88.196 5.02372 88.1307 4.69705 88C4.37039 87.86 4.10439 87.6687 3.89905 87.426C3.70305 87.1833 3.55839 86.9033 3.46505 86.586C3.38105 86.2593 3.33905 85.9047 3.33905 85.522V80.748H4.17905V85.508C4.17905 86.1333 4.32372 86.614 4.61305 86.95C4.90239 87.2767 5.37839 87.44 6.04105 87.44C6.38639 87.44 6.69439 87.3747 6.96506 87.244C7.24506 87.104 7.47839 86.9127 7.66505 86.67C7.85172 86.4273 7.99639 86.138 8.09906 85.802C8.20172 85.466 8.25305 85.0973 8.25305 84.696V80.748ZM12.0564 84.402C12.0564 84.8127 12.1124 85.2047 12.2244 85.578C12.3364 85.942 12.495 86.264 12.7004 86.544C12.915 86.8147 13.1717 87.034 13.4704 87.202C13.7784 87.3607 14.1237 87.44 14.5064 87.44C14.9357 87.44 15.309 87.356 15.6264 87.188C15.953 87.0107 16.219 86.7727 16.4244 86.474C16.6297 86.1753 16.779 85.83 16.8724 85.438C16.9657 85.0367 17.003 84.6073 16.9844 84.15C16.9844 83.6927 16.919 83.2913 16.7884 82.946C16.667 82.5913 16.4944 82.2927 16.2704 82.05C16.0464 81.8073 15.785 81.6253 15.4864 81.504C15.1877 81.3733 14.861 81.308 14.5064 81.308C14.1144 81.308 13.7644 81.3873 13.4564 81.546C13.1484 81.7047 12.8917 81.924 12.6864 82.204C12.481 82.4747 12.3224 82.8013 12.2104 83.184C12.1077 83.5573 12.0564 83.9633 12.0564 84.402ZM12.0564 90.856H11.2164V80.748H12.0564V82.022H12.0844C12.2057 81.7887 12.3597 81.5787 12.5464 81.392C12.7424 81.2053 12.9524 81.0513 13.1764 80.93C13.4097 80.8087 13.6477 80.7153 13.8904 80.65C14.133 80.5847 14.371 80.552 14.6044 80.552C15.1924 80.552 15.6917 80.65 16.1024 80.846C16.513 81.042 16.849 81.3127 17.1104 81.658C17.381 81.994 17.577 82.3953 17.6984 82.862C17.8197 83.3287 17.8804 83.828 17.8804 84.36C17.8804 84.864 17.815 85.3493 17.6844 85.816C17.5537 86.2827 17.353 86.6933 17.0824 87.048C16.821 87.3933 16.485 87.6733 16.0744 87.888C15.673 88.0933 15.197 88.196 14.6464 88.196C14.133 88.196 13.6384 88.084 13.1624 87.86C12.6957 87.6267 12.327 87.286 12.0564 86.838V90.856Z" fill="black"/>
<line x1="10.25" y1="6" x2="10.25" y2="75" stroke="black" stroke-width="0.5"/>
<path d="M10 0L13.4641 6H6.5359L10 0Z" fill="black"/>
</svg>
